<svg xmlns="http://www.w3.org/2000/svg" width="16" height="16" viewBox="0 0 16 16">
  <path d="M8.00689064,0 C12.416882,0 16,3.5862069 16,8 C16,12.4137931 12.416882,16 8.00689064,16 C3.583118,16 0,12.4137931 0,8 C0,3.5862069 3.59689922,0 8.00689064,0 Z M8.00689064,1.11724138 C4.21705426,1.11724138 1.1300603,4.20689655 1.1300603,8 C1.1300603,11.7931034 4.21705426,14.8827586 8.00689064,14.8827586 C11.796727,14.8827586 14.883721,11.7931034 14.883721,8 C14.883721,4.20689655 11.796727,1.11724138 8.00689064,1.11724138 Z M8.26666664,3.73333334 C8.58528136,3.73333334 8.834632,3.98268398 8.834632,4.3012987 L8.834632,4.3012987 L8.834632,7.44588745 L11.965368,7.44588745 C12.2839827,7.44588745 12.5333334,7.68138528 12.5333334,8 C12.5333334,8.31861472 12.2839827,8.56796536 11.965368,8.56796536 L11.965368,8.56796536 L8.834632,8.56796536 L8.834632,11.6987013 C8.834632,12.017316 8.58528136,12.2666666 8.26666664,12.2666666 C7.94805195,12.2666666 7.6987013,12.017316 7.6987013,11.6987013 L7.6987013,11.6987013 L7.6987013,8.56796536 L4.56796537,8.56796536 C4.24935065,8.56796536 4,8.31861472 4,8 C4,7.68138528 4.24935065,7.43203463 4.56796537,7.43203463 L4.56796537,7.43203463 L7.6987013,7.43203463 L7.6987013,4.3012987 C7.6987013,3.98268398 7.94805195,3.73333334 8.26666664,3.73333334 Z"/>
</svg>
