<svg xmlns="http://www.w3.org/2000/svg" width="16" height="16" viewBox="0 0 16 16"><defs><clipPath id="a"><path d="M0 0h16v16H0z"/></clipPath></defs><g data-name="Artboard – 1"><g data-name="bell 16x16" clip-path="url(#a)"><path data-name="Path 573" d="M8.466.5a1.229 1.229 0 011.293 1.149h0V2.8a.257.257 0 01-.006.055 4.352 4.352 0 012.8 4.06h0V8.47a5.28 5.28 0 00.752 2.715h0l1.066 1.776a.31.31 0 01-.266.47h-4.4a1.993 1.993 0 01.052.453A1.485 1.485 0 018.465 15.5a1.483 1.483 0 01-1.293-1.617 1.993 1.993 0 01.052-.453H2.311a.31.31 0 01-.266-.47h0l1.066-1.776a5.28 5.28 0 00.751-2.714h0V6.914a4.353 4.353 0 013.31-4.22V1.649A1.229 1.229 0 018.466.5zm.683 12.93H7.781a1.168 1.168 0 00-.091.453.89.89 0 00.776.97.89.89 0 00.776-.97 1.157 1.157 0 00-.1-.483zM8.207 3.19a3.728 3.728 0 00-3.724 3.724h0V8.47a5.9 5.9 0 01-.84 3.03h0l-.784 1.31h10.7l-.788-1.31a5.9 5.9 0 01-.84-3.034h0V6.914A3.728 3.728 0 008.207 3.19zm.259-2.115a.614.614 0 00-.647.575h0v.937q.192-.017.388-.017a4.344 4.344 0 01.9.095V1.649a.614.614 0 00-.641-.574z"  stroke-width=".5"/></g></g></svg>