<svg xmlns="http://www.w3.org/2000/svg" width="16" height="16"><g fill="none"><rect width="16" height="16" fill="#000" fill-opacity=".405" rx="2.196"/><path fill="#FFF" stroke="#FFF" stroke-width=".5" d="M7.31 8.47c.13 0 .236.106.236.236v1.882a.235.235 0 01-.47 0v-1.33L5.342 10.99a.235.235 0 01-.333-.333l1.716-1.716H5.428a.235.235 0 010-.47h1.883zm3.68-3.46a.235.235 0 010 .333L9.257 7.075h1.331a.235.235 0 010 .471H8.706a.235.235 0 01-.235-.235V5.428a.235.235 0 01.47 0v1.298l1.716-1.716a.235.235 0 01.333 0z"/></g></svg>