<svg xmlns="http://www.w3.org/2000/svg" width="16" height="16"><g fill="#1D4269"><path d="M5.029 11.886h5.029v1.067H5.029zM3.901 1.016h8.046v2.032h1.005V1.016c0-.56-.45-1.016-1.005-1.016H3.9c-.555 0-1.006.455-1.006 1.016v2.032h1.006V1.016zM5.029 9.905h5.943v1.067H5.029z"/><path d="M15 3.962H1c-.552 0-1 .45-1 1.003v6.02c0 .554.448 1.002 1 1.002h2v3.01C3 15.55 3.448 16 4 16h8a1 1 0 001-1.003v-3.01h2a1 1 0 001-1.003V4.965c0-.554-.447-1.003-1-1.003zm-3 11.035H4v-6.02h8v6.02zm2-8.026c-.553 0-1-.448-1-1.003 0-.553.447-1.003 1-1.003.553 0 1 .45 1 1.003 0 .555-.447 1.003-1 1.003z"/></g></svg>