<svg xmlns="http://www.w3.org/2000/svg" width="16" height="16"><path fill="#10A424" d="M3.25 7H.75a.75.75 0 00-.75.75v7.5c0 .414.336.75.75.75h2.5a.75.75 0 00.75-.75v-7.5A.75.75 0 003.25 7zM2 14.75a.75.75 0 110-1.5.75.75 0 010 1.5zM12 2.545c0 1.326-.812 2.07-1.04 2.955h3.179c1.044 0 1.856.867 1.861 1.816.003.56-.236 1.164-.608 1.537l-.003.003c.307.73.257 1.752-.29 2.484.27.809-.003 1.803-.513 2.336.135.55.07 1.018-.192 1.395-.638.916-2.219.929-3.555.929h-.09c-1.508 0-2.743-.55-3.735-.991-.5-.222-1.151-.497-1.646-.506A.375.375 0 015 14.128v-6.68c0-.1.04-.196.111-.267 1.238-1.223 1.77-2.518 2.785-3.534.463-.464.631-1.164.794-1.84C8.829 1.226 9.12 0 9.75 0 10.5 0 12 .25 12 2.545z"/></svg>