<?xml version="1.0" standalone="no"?>
<!DOCTYPE svg PUBLIC "-//W3C//DTD SVG 20010904//EN"
 "http://www.w3.org/TR/2001/REC-SVG-20010904/DTD/svg10.dtd">
<svg version="1.0" xmlns="http://www.w3.org/2000/svg"
 width="672.000000pt" height="672.000000pt" viewBox="0 0 672.000000 672.000000"
 preserveAspectRatio="xMidYMid meet">
<metadata>
Created by potrace 1.14, written by Peter Selinger 2001-2017
</metadata>
<g transform="translate(0.000000,672.000000) scale(0.100000,-0.100000)"
fill="#000000" stroke="none">
<path d="M2140 5888 c-81 -23 -151 -104 -168 -193 -9 -49 -6 -2676 3 -2724 13
-69 80 -141 160 -171 20 -8 132 -13 325 -15 162 -1 305 -5 318 -8 43 -11 106
-62 136 -111 24 -41 30 -62 33 -118 1 -37 -2 -70 -8 -73 -5 -4 -7 -10 -4 -14
7 -12 -44 -84 -80 -113 -60 -49 -83 -52 -500 -54 -382 -1 -418 -3 -500 -26
-22 -6 -44 -12 -50 -14 -13 -2 -114 -51 -140 -67 -71 -44 -152 -118 -204 -187
-14 -19 -28 -37 -31 -40 -12 -12 -59 -109 -75 -155 -40 -115 -44 -160 -42
-490 2 -307 3 -322 24 -360 23 -44 56 -76 112 -109 l36 -21 2185 -3 c2033 -2
2188 -1 2230 14 66 25 107 62 137 123 l27 55 1 295 c1 410 -16 496 -136 672
-86 127 -273 258 -414 289 -27 7 -59 14 -70 17 -11 2 -202 6 -425 7 -448 4
-442 3 -513 70 -53 49 -79 113 -76 184 3 70 28 123 82 174 47 43 93 59 187 64
36 1 93 4 127 6 35 2 63 5 63 8 0 3 17 5 38 6 89 1 296 50 444 105 168 62 419
197 524 282 123 100 161 133 234 207 47 48 96 101 110 119 14 18 35 44 48 59
27 31 116 165 159 237 85 144 184 397 219 558 8 40 18 81 20 92 3 11 7 38 10
60 3 22 8 54 11 70 3 17 7 266 10 554 3 376 1 537 -7 570 -16 62 -72 128 -134
157 l-51 24 -2175 -1 c-1415 -1 -2187 -4 -2210 -11z m4087 -851 c-3 -204 -7
-381 -9 -392 -3 -11 -9 -42 -12 -70 -4 -27 -16 -84 -28 -125 -11 -41 -21 -82
-23 -90 -2 -8 -4 -16 -5 -17 -2 -2 -3 -6 -5 -10 -2 -8 -4 -14 -42 -108 -96
-233 -279 -467 -493 -629 -41 -31 -84 -63 -95 -72 -33 -25 -275 -141 -340
-163 -63 -21 -159 -46 -210 -55 -16 -3 -39 -8 -50 -10 -38 -7 -160 -18 -255
-21 -52 -1 -115 -8 -140 -15 -25 -7 -52 -14 -61 -15 -81 -16 -231 -110 -315
-197 -241 -250 -273 -622 -79 -923 27 -42 152 -166 200 -197 44 -30 162 -87
191 -92 11 -3 42 -10 69 -17 35 -8 172 -13 450 -14 385 -2 402 -3 447 -23 58
-27 106 -74 130 -130 18 -39 25 -157 19 -314 l-1 -28 -1884 0 -1883 0 2 153
c2 172 13 214 69 265 33 30 88 63 116 69 8 2 197 5 420 7 372 3 411 5 482 24
169 46 323 152 414 285 67 99 117 224 126 315 1 12 5 22 8 22 7 0 4 110 -5
185 -22 184 -124 365 -271 480 -77 61 -123 87 -213 119 -103 37 -108 38 -304
41 -98 1 -180 5 -183 8 -4 4 -8 1806 -4 2095 l0 32 1885 0 1886 0 -4 -373z"/>
<path d="M2 5232 c-6 -18 5 -419 13 -457 4 -16 10 -50 15 -75 16 -88 21 -106
51 -195 57 -165 154 -345 258 -475 39 -50 227 -240 237 -240 3 0 24 -15 47
-34 73 -59 261 -167 342 -196 11 -4 31 -12 45 -18 30 -13 144 -49 180 -57 93
-19 121 -24 165 -30 28 -4 84 -8 125 -9 l75 -1 0 900 0 900 -774 0 c-629 0
-774 -2 -779 -13z"/>
</g>
</svg>
