<svg xmlns="http://www.w3.org/2000/svg" width="16" height="16"><path fill-rule="evenodd" d="M14.656.733a.61.61 0 100 1.22.61.61 0 000-1.22zM5.374 4.397a.61.61 0 100 1.221.61.61 0 000-1.221zm2.81 2.81a.61.61 0 10-.001 1.22.61.61 0 000-1.22zm-6.84 1.22a.61.61 0 100 1.222.61.61 0 000-1.222zM14.656 0a1.343 1.343 0 11-.696 2.492L9.332 7.12a1.344 1.344 0 11-2.335.065L6.029 6.18a1.335 1.335 0 01-1.273.019L2.536 8.42a1.343 1.343 0 11-.502-.534l2.187-2.189a1.343 1.343 0 112.327-.035l.958.994a1.337 1.337 0 011.289-.036l4.665-4.665A1.343 1.343 0 0114.656 0zm.367 5.74v9.527H16V16H0v-.733h.977v-3.664h.733v3.664h3.298V8.672h.733v6.595h2.198v-4.641h.733v4.64h5.618V5.74h.733z"/></svg>