<svg width="16" height="16" xmlns="http://www.w3.org/2000/svg">
    <path d="M14 3a1.294 1.294 0 11-.33 2.546l.01.002-4.807 4.63.015.11.006.124a1.294 1.294 0 11-2.57-.22l-.002.014-.952-.918.038-.013a1.291 1.291 0 01-.905-.007l.019.007-1.949 1.88-.002-.014a1.294 1.294 0 11-.936-1.037l-.007-.002 2.045-1.97.004.054.012.09-.012-.093-.006-.124a1.294 1.294 0 112.582.124V8.18l1.019.98-.011.004a1.296 1.296 0 01.66-.005l-.02-.005 4.822-4.645.003.015A1.294 1.294 0 0114 3zM1.294 10.765a.588.588 0 100 1.176.588.588 0 000-1.176zM7.6 9.824A.588.588 0 107.6 11a.588.588 0 000-1.176zM4.965 7.47a.588.588 0 100 1.176.588.588 0 000-1.176zM14 3.706a.588.588 0 100 1.176.588.588 0 000-1.176z"
    />
</svg>