<svg xmlns="http://www.w3.org/2000/svg" width="16" height="16" viewBox="0 0 16 16">
  <path d="M11.6902094,0 L11.6896249,2.724 L11.799318,2.61714286 L14.0048709,4.77333334 L11.6896249,7.0344 L11.6902094,12.727619 L8.34291279,16 L0,16 L0,0 L11.6902094,0 Z M10.9108621,0.761904762 L0.779347294,0.761904762 L0.779347294,15.2380952 L7.7928105,15.2376 L7.79347294,12.1904762 L10.9105894,12.1904 L10.9105894,7.796 L7.19727227,11.4247619 L7.12713101,11.527619 L2.60301996,13.7638095 L4.59814904,9.90476192 L2.33804189,9.90476192 L2.33804189,9.14285712 L5.12420846,9.14285712 L6.68290306,7.61904762 L2.33804189,7.61904762 L2.33804189,6.85714286 L7.46225035,6.85714286 L9.02094492,5.33333334 L2.33804189,5.33333334 L2.33804189,4.57142857 L9.35216751,4.57142857 L9.35216751,5.00952381 L10.9105894,3.4856 L10.9108621,0.761904762 Z M10.3615002,12.952 L8.57282026,12.952381 L8.57266437,14.7 L10.3615002,12.952 Z M5.62299073,9.90476192 L5.45543107,9.90476192 L4.56697515,11.6533334 L4.76181197,11.8438095 L6.64783242,10.9028571 L5.62299073,9.90476192 Z M13.7944472,0.666666666 L16,2.82285714 L14.5543107,4.23619048 L14.4880662,4.16761905 L12.3487579,2.08 L13.7944472,0.666666666 Z M9.35216751,2.29714286 L9.35216751,3.51619048 L2.33804189,3.51619048 L2.33804189,2.29714286 L9.35216751,2.29714286 Z"/>
</svg>
