<svg xmlns="http://www.w3.org/2000/svg" width="16" height="16"><path data-name="Path 582" d="M15.778 2.533C14.836 2 11.084 0 8 0S1.164 2 .222 2.533A.444.444 0 000 2.924V12a.44.44 0 00.444.444h.444v2.222A1.332 1.332 0 002.222 16h11.556a1.332 1.332 0 001.333-1.333v-2.223h.444A.44.44 0 0016 12V2.924a.444.444 0 00-.222-.391zM8 .889a.889.889 0 11-.889.889A.892.892 0 018 .889zM.889 10.667a.892.892 0 01.889-.889h.889a.889.889 0 110 1.778h-.889a.892.892 0 01-.889-.889zm4.444 4a.452.452 0 01-.444.444H2.222a.452.452 0 01-.444-.444v-.889a.452.452 0 01.444-.444h2.667a.452.452 0 01.444.444zm.889-7.556H1.778a.892.892 0 01-.889-.889V4.444a.892.892 0 01.889-.889h4.444a.892.892 0 01.889.889v1.778a.892.892 0 01-.889.889zM8.889 12a.44.44 0 01-.444.444h-.889A.44.44 0 017.111 12v-.889a.44.44 0 01.444-.444h.889a.44.44 0 01.444.444zm5.333 2.667a.452.452 0 01-.444.444h-2.667a.452.452 0 01-.444-.444v-.889a.452.452 0 01.444-.444h2.667a.452.452 0 01.444.444zm0-3.111h-.889a.889.889 0 110-1.778h.889a.889.889 0 110 1.778zm.889-5.333a.892.892 0 01-.889.889H9.778a.892.892 0 01-.889-.889V4.444a.892.892 0 01.889-.889h4.444a.892.892 0 01.889.889z" fill="#7f7f7f"/></svg>