<svg xmlns="http://www.w3.org/2000/svg" width="16" height="16"><defs><clipPath id="clip-Artboard_1"><path d="M0 0h16v16H0z"/></clipPath></defs><g id="Artboard_1" data-name="Artboard – 1" clip-path="url(#clip-Artboard_1)"><path id="Union_9" data-name="Union 9" d="M7.21 13.31V3.594a.6.6 0 111.2 0v9.716a.6.6 0 01-1.2 0zm4.6-2.657V9.594a.254.254 0 00-.253-.254H9.781a.253.253 0 01-.253-.246V7.85a.253.253 0 01.253-.256h1.772a.253.253 0 00.253-.254v-.946a.253.253 0 01.379-.22l3.689 2.131a.253.253 0 010 .438l-3.689 2.13a.249.249 0 01-.126.035.253.253 0 01-.253-.255zm-7.991.219L.127 8.741a.253.253 0 010-.438l3.688-2.131a.253.253 0 01.38.22v1.057a.253.253 0 00.253.253h1.771a.254.254 0 01.254.253v1.239a.254.254 0 01-.254.253H4.448a.253.253 0 00-.253.253v.953a.254.254 0 01-.254.253.249.249 0 01-.126-.034z" fill="#1baaf4" stroke="rgba(0,0,0,0)" stroke-miterlimit="10" stroke-width="1"/></g></svg>